<svg width="126" height="21" viewBox="0 0 126 21" fill="none" xmlns="http://www.w3.org/2000/svg">
<path d="M7.97223 8.535C7.97223 8.535 7.97226 6.48746 7.97223 5.25894C7.9722 3.78452 9.18993 2.39239 11.0171 2.39239C12.8442 2.39239 14.0619 3.78452 14.0619 5.25894C14.0619 6.48746 14.0619 8.535 14.0619 8.535" stroke="black" stroke-width="2" stroke-linecap="round" stroke-linejoin="round"/>
<path fill-rule="evenodd" clip-rule="evenodd" d="M5.0363 9.08565C5.03626 10.4722 5.03622 13.3687 5.03631 15.3103C5.03642 17.4573 8.35669 17.9429 11.0173 17.9429C13.6779 17.9429 16.9982 17.4573 16.9982 15.3103V9.08565C16.9982 8.64521 16.6412 8.29018 16.2007 8.29018H5.83375C5.39334 8.29018 5.0363 8.64521 5.0363 9.08565Z" fill="black"/>
<path d="M9.10327 12.6881L10.0602 13.5916C10.2364 13.7579 10.5221 13.7579 10.6982 13.5916L12.9311 11.4835" stroke="white" stroke-linecap="round" stroke-linejoin="round"/>
<path d="M82.2553 8.44526C82.2553 7.9506 82.667 7.76035 83.3489 7.76035C84.3268 7.76035 85.562 8.05207 86.5399 8.5721V5.59146C85.4719 5.1729 84.4169 5.00801 83.3489 5.00801C80.737 5.00801 79 6.35247 79 8.59746C79 12.0981 83.8893 11.5401 83.8893 13.0494C83.8893 13.6328 83.3747 13.8231 82.6541 13.8231C81.5862 13.8231 80.2223 13.3919 79.1415 12.8084V15.8271C80.3381 16.3344 81.5476 16.5501 82.6541 16.5501C85.3304 16.5501 87.1703 15.2437 87.1703 12.9733C87.1575 9.19359 82.2553 9.86582 82.2553 8.44526ZM90.9531 2.4713L87.8137 3.13084L87.8008 13.2904C87.8008 15.1676 89.229 16.5501 91.1333 16.5501C92.1883 16.5501 92.9603 16.3598 93.3849 16.1315V13.5567C92.9732 13.7216 90.9403 14.3051 90.9403 12.4279V7.92523H93.3849V5.22363H90.9403L90.9531 2.4713ZM97.3865 6.16222L97.1806 5.22363H94.4014V16.3218H97.6181V8.8004C98.3772 7.82377 99.6639 8.00134 100.063 8.14085V5.22363C99.651 5.07143 98.1456 4.79239 97.3865 6.16222ZM100.848 5.22363H104.077V16.3218H100.848V5.22363ZM100.848 4.25968L104.077 3.57477V1L100.848 1.67223V4.25968ZM110.794 5.00801C109.533 5.00801 108.722 5.59146 108.272 5.99733L108.104 5.21095H105.274V20L108.49 19.3278L108.503 15.7383C108.966 16.0681 109.648 16.5374 110.781 16.5374C113.084 16.5374 115.181 14.7109 115.181 10.6903C115.168 7.01202 113.045 5.00801 110.794 5.00801ZM110.022 13.747C109.262 13.747 108.812 13.4806 108.503 13.1509L108.49 8.44526C108.825 8.07744 109.288 7.82377 110.022 7.82377C111.192 7.82377 112.003 9.11749 112.003 10.779C112.003 12.4786 111.205 13.747 110.022 13.747ZM125.32 10.8171C125.32 7.57009 123.725 5.00801 120.675 5.00801C117.613 5.00801 115.76 7.57009 115.76 10.7917C115.76 14.6095 117.947 16.5374 121.087 16.5374C122.618 16.5374 123.776 16.1949 124.651 15.713V13.1762C123.776 13.6075 122.772 13.8738 121.499 13.8738C120.251 13.8738 119.144 13.4426 119.002 11.9459H125.294C125.294 11.781 125.32 11.1215 125.32 10.8171ZM118.964 9.61215C118.964 8.1789 119.852 7.58278 120.662 7.58278C121.447 7.58278 122.283 8.1789 122.283 9.61215H118.964Z" fill="#6772E5"/>
<path d="M25.858 8.54545C25.8153 8.18561 25.6425 7.90625 25.3395 7.70739C25.0365 7.50852 24.6648 7.40909 24.2244 7.40909C23.9025 7.40909 23.6207 7.46117 23.3793 7.56534C23.1402 7.66951 22.9531 7.81274 22.8182 7.99503C22.6856 8.17732 22.6193 8.38447 22.6193 8.61648C22.6193 8.81061 22.6655 8.97751 22.7578 9.11719C22.8525 9.2545 22.9732 9.36932 23.12 9.46165C23.2668 9.55161 23.4207 9.62618 23.5817 9.68537C23.7427 9.74219 23.8906 9.78835 24.0256 9.82386L24.7642 10.0227C24.9536 10.0724 25.1643 10.1411 25.3963 10.2287C25.6307 10.3163 25.8544 10.4358 26.0675 10.5874C26.2829 10.7365 26.4605 10.9283 26.6001 11.1626C26.7398 11.397 26.8097 11.6847 26.8097 12.0256C26.8097 12.4186 26.7067 12.7737 26.5007 13.0909C26.2971 13.4081 25.9988 13.6603 25.6058 13.8473C25.2152 14.0343 24.7405 14.1278 24.1818 14.1278C23.661 14.1278 23.21 14.0438 22.8288 13.8757C22.45 13.7076 22.1518 13.4732 21.9339 13.1726C21.7185 12.8719 21.5966 12.5227 21.5682 12.125H22.4773C22.5009 12.3996 22.5933 12.6269 22.7543 12.8068C22.9176 12.9844 23.1236 13.117 23.3722 13.2045C23.6231 13.2898 23.893 13.3324 24.1818 13.3324C24.518 13.3324 24.8198 13.2779 25.0874 13.169C25.3549 13.0578 25.5668 12.9039 25.723 12.7074C25.8793 12.5085 25.9574 12.2765 25.9574 12.0114C25.9574 11.7699 25.8899 11.5734 25.755 11.4219C25.62 11.2704 25.4425 11.1473 25.2223 11.0526C25.0021 10.9579 24.7642 10.875 24.5085 10.804L23.6136 10.5483C23.0455 10.3849 22.5956 10.1518 22.2642 9.84872C21.9328 9.54569 21.767 9.14915 21.767 8.65909C21.767 8.25189 21.8771 7.89678 22.0973 7.59375C22.3198 7.28835 22.6181 7.05161 22.9922 6.88352C23.3686 6.71307 23.7888 6.62784 24.2528 6.62784C24.7216 6.62784 25.1383 6.71188 25.5028 6.87997C25.8674 7.04569 26.1563 7.27296 26.3693 7.56179C26.5848 7.85062 26.6984 8.1785 26.7102 8.54545H25.858ZM30.4309 14.1136C29.9054 14.1136 29.452 13.9976 29.0708 13.7656C28.6921 13.5312 28.3997 13.2045 28.1937 12.7855C27.9901 12.3641 27.8883 11.8741 27.8883 11.3153C27.8883 10.7566 27.9901 10.2642 28.1937 9.83807C28.3997 9.40956 28.6861 9.07576 29.0531 8.83665C29.4224 8.59517 29.8533 8.47443 30.3457 8.47443C30.6298 8.47443 30.9103 8.52178 31.1873 8.61648C31.4643 8.71117 31.7164 8.86506 31.9437 9.07812C32.171 9.28883 32.3521 9.56818 32.487 9.91619C32.622 10.2642 32.6895 10.6927 32.6895 11.2017V11.5568H28.4849V10.8324H31.8372C31.8372 10.5246 31.7756 10.25 31.6525 10.0085C31.5318 9.76705 31.359 9.57647 31.1341 9.43679C30.9115 9.29711 30.6487 9.22727 30.3457 9.22727C30.0119 9.22727 29.7231 9.31013 29.4792 9.47585C29.2377 9.6392 29.0519 9.85227 28.9217 10.1151C28.7915 10.3778 28.7264 10.6596 28.7264 10.9602V11.4432C28.7264 11.8551 28.7974 12.2043 28.9395 12.4908C29.0839 12.7749 29.2839 12.9915 29.5396 13.1406C29.7953 13.2874 30.0924 13.3608 30.4309 13.3608C30.6511 13.3608 30.85 13.33 31.0275 13.2685C31.2074 13.2045 31.3625 13.1098 31.4927 12.9844C31.6229 12.8565 31.7235 12.6979 31.7946 12.5085L32.6042 12.7358C32.519 13.0104 32.3758 13.2519 32.1745 13.4602C31.9733 13.6662 31.7247 13.8272 31.4288 13.9432C31.1329 14.0568 30.8002 14.1136 30.4309 14.1136ZM36.1802 14.1136C35.6689 14.1136 35.2285 13.9929 34.8592 13.7514C34.4899 13.5099 34.2058 13.1773 34.0069 12.7536C33.8081 12.3298 33.7086 11.8456 33.7086 11.3011C33.7086 10.7472 33.8104 10.2583 34.014 9.83452C34.22 9.40838 34.5065 9.07576 34.8734 8.83665C35.2427 8.59517 35.6736 8.47443 36.166 8.47443C36.5495 8.47443 36.8952 8.54545 37.2029 8.6875C37.5107 8.82955 37.7628 9.02841 37.9593 9.28409C38.1558 9.53977 38.2778 9.83807 38.3251 10.179H37.487C37.4231 9.9304 37.2811 9.71023 37.0609 9.51847C36.8431 9.32434 36.5495 9.22727 36.1802 9.22727C35.8535 9.22727 35.5671 9.3125 35.3208 9.48295C35.077 9.65104 34.8864 9.88897 34.7491 10.1967C34.6142 10.5021 34.5467 10.8608 34.5467 11.2727C34.5467 11.6941 34.613 12.0611 34.7456 12.3736C34.8805 12.6861 35.0699 12.9287 35.3137 13.1016C35.56 13.2744 35.8488 13.3608 36.1802 13.3608C36.398 13.3608 36.5957 13.3229 36.7733 13.2472C36.9508 13.1714 37.1011 13.0625 37.2243 12.9205C37.3474 12.7784 37.435 12.608 37.487 12.4091H38.3251C38.2778 12.7311 38.1606 13.0211 37.9735 13.2791C37.7889 13.5348 37.5439 13.7384 37.2385 13.8899C36.9354 14.0391 36.5827 14.1136 36.1802 14.1136ZM42.9877 11.7699V8.54545H43.8258V14H42.9877V13.0767H42.9309C42.8031 13.3537 42.6042 13.5893 42.3343 13.7834C42.0645 13.9751 41.7235 14.071 41.3116 14.071C40.9707 14.071 40.6677 13.9964 40.4025 13.8473C40.1374 13.6958 39.929 13.4685 39.7775 13.1655C39.626 12.8601 39.5502 12.4754 39.5502 12.0114V8.54545H40.3883V11.9545C40.3883 12.3523 40.4996 12.6695 40.7221 12.9062C40.947 13.143 41.2335 13.2614 41.5815 13.2614C41.7898 13.2614 42.0017 13.2081 42.2172 13.1016C42.435 12.995 42.6172 12.8317 42.764 12.6115C42.9132 12.3913 42.9877 12.1108 42.9877 11.7699ZM45.3608 14V8.54545H46.1705V9.36932H46.2273C46.3267 9.09943 46.5066 8.88045 46.767 8.71236C47.0275 8.54427 47.321 8.46023 47.6477 8.46023C47.7093 8.46023 47.7862 8.46141 47.8786 8.46378C47.9709 8.46615 48.0407 8.4697 48.0881 8.47443V9.3267C48.0597 9.3196 47.9946 9.30895 47.8928 9.29474C47.7933 9.27817 47.688 9.26989 47.5767 9.26989C47.3116 9.26989 47.0748 9.32552 46.8665 9.43679C46.6605 9.54569 46.4972 9.69721 46.3764 9.89134C46.258 10.0831 46.1989 10.3021 46.1989 10.5483V14H45.3608ZM51.2024 14.1136C50.6768 14.1136 50.2235 13.9976 49.8423 13.7656C49.4635 13.5312 49.1712 13.2045 48.9652 12.7855C48.7616 12.3641 48.6598 11.8741 48.6598 11.3153C48.6598 10.7566 48.7616 10.2642 48.9652 9.83807C49.1712 9.40956 49.4576 9.07576 49.8246 8.83665C50.1939 8.59517 50.6248 8.47443 51.1172 8.47443C51.4013 8.47443 51.6818 8.52178 51.9588 8.61648C52.2358 8.71117 52.4879 8.86506 52.7152 9.07812C52.9425 9.28883 53.1236 9.56818 53.2585 9.91619C53.3935 10.2642 53.4609 10.6927 53.4609 11.2017V11.5568H49.2564V10.8324H52.6087C52.6087 10.5246 52.5471 10.25 52.424 10.0085C52.3033 9.76705 52.1304 9.57647 51.9055 9.43679C51.683 9.29711 51.4202 9.22727 51.1172 9.22727C50.7834 9.22727 50.4946 9.31013 50.2507 9.47585C50.0092 9.6392 49.8234 9.85227 49.6932 10.1151C49.563 10.3778 49.4979 10.6596 49.4979 10.9602V11.4432C49.4979 11.8551 49.5689 12.2043 49.7109 12.4908C49.8554 12.7749 50.0554 12.9915 50.3111 13.1406C50.5668 13.2874 50.8639 13.3608 51.2024 13.3608C51.4226 13.3608 51.6214 13.33 51.799 13.2685C51.9789 13.2045 52.134 13.1098 52.2642 12.9844C52.3944 12.8565 52.495 12.6979 52.5661 12.5085L53.3757 12.7358C53.2905 13.0104 53.1473 13.2519 52.946 13.4602C52.7448 13.6662 52.4962 13.8272 52.2003 13.9432C51.9044 14.0568 51.5717 14.1136 51.2024 14.1136ZM56.7955 14.1136C56.3409 14.1136 55.9396 13.9988 55.5916 13.7692C55.2436 13.5372 54.9714 13.2105 54.7749 12.7891C54.5784 12.3653 54.4801 11.8646 54.4801 11.2869C54.4801 10.714 54.5784 10.2169 54.7749 9.79545C54.9714 9.37405 55.2448 9.04853 55.5952 8.81889C55.9455 8.58925 56.3504 8.47443 56.8097 8.47443C57.1648 8.47443 57.4453 8.53362 57.6513 8.65199C57.8596 8.76799 58.0182 8.90057 58.1271 9.04972C58.2384 9.1965 58.3248 9.31723 58.3864 9.41193H58.4574V6.72727H59.2955V14H58.4858V13.1619H58.3864C58.3248 13.2614 58.2372 13.3868 58.1236 13.5384C58.0099 13.6875 57.8478 13.8213 57.6371 13.9396C57.4264 14.0556 57.1458 14.1136 56.7955 14.1136ZM56.9091 13.3608C57.2453 13.3608 57.5294 13.2732 57.7614 13.098C57.9934 12.9205 58.1697 12.6754 58.2905 12.3629C58.4112 12.0481 58.4716 11.6847 58.4716 11.2727C58.4716 10.8655 58.4124 10.5092 58.294 10.2038C58.1757 9.89607 58.0005 9.65696 57.7685 9.48651C57.5365 9.31368 57.25 9.22727 56.9091 9.22727C56.554 9.22727 56.258 9.31842 56.0213 9.50071C55.7869 9.68063 55.6106 9.92566 55.4922 10.2358C55.3762 10.5436 55.3182 10.8892 55.3182 11.2727C55.3182 11.661 55.3774 12.0137 55.4957 12.331C55.6165 12.6458 55.794 12.8968 56.0284 13.0838C56.2652 13.2685 56.5587 13.3608 56.9091 13.3608ZM63.8729 14V6.72727H64.7109V9.41193H64.782C64.8435 9.31723 64.9287 9.1965 65.0376 9.04972C65.1489 8.90057 65.3075 8.76799 65.5135 8.65199C65.7218 8.53362 66.0036 8.47443 66.3587 8.47443C66.8179 8.47443 67.2228 8.58925 67.5732 8.81889C67.9235 9.04853 68.197 9.37405 68.3935 9.79545C68.59 10.2169 68.6882 10.714 68.6882 11.2869C68.6882 11.8646 68.59 12.3653 68.3935 12.7891C68.197 13.2105 67.9247 13.5372 67.5767 13.7692C67.2287 13.9988 66.8274 14.1136 66.3729 14.1136C66.0225 14.1136 65.742 14.0556 65.5312 13.9396C65.3205 13.8213 65.1584 13.6875 65.0447 13.5384C64.9311 13.3868 64.8435 13.2614 64.782 13.1619H64.6825V14H63.8729ZM64.6967 11.2727C64.6967 11.6847 64.7571 12.0481 64.8778 12.3629C64.9986 12.6754 65.175 12.9205 65.407 13.098C65.639 13.2732 65.9231 13.3608 66.2592 13.3608C66.6096 13.3608 66.902 13.2685 67.1364 13.0838C67.3731 12.8968 67.5507 12.6458 67.669 12.331C67.7898 12.0137 67.8501 11.661 67.8501 11.2727C67.8501 10.8892 67.791 10.5436 67.6726 10.2358C67.5566 9.92566 67.3802 9.68063 67.1435 9.50071C66.9091 9.31842 66.6143 9.22727 66.2592 9.22727C65.9183 9.22727 65.6319 9.31368 65.3999 9.48651C65.1679 9.65696 64.9927 9.89607 64.8743 10.2038C64.7559 10.5092 64.6967 10.8655 64.6967 11.2727ZM70.3146 16.0455C70.1726 16.0455 70.0459 16.0336 69.9347 16.0099C69.8234 15.9886 69.7464 15.9673 69.7038 15.946L69.9169 15.2074C70.1205 15.2595 70.3004 15.2784 70.4567 15.2642C70.6129 15.25 70.7514 15.1802 70.8722 15.0547C70.9953 14.9316 71.1077 14.7315 71.2095 14.4545L71.3658 14.0284L69.3487 8.54545H70.2578L71.7635 12.892H71.8203L73.326 8.54545H74.2351L71.9197 14.7955C71.8156 15.0772 71.6866 15.3104 71.5327 15.495C71.3788 15.6821 71.2 15.8205 70.9964 15.9105C70.7952 16.0005 70.5679 16.0455 70.3146 16.0455Z" fill="black"/>
</svg>