<svg width="147" height="36" viewBox="0 0 147 36" fill="none" xmlns="http://www.w3.org/2000/svg">
<g clip-path="url(#clip0_11747_17263)">
<path d="M30.7929 0L29.0187 8.78606C29.0187 8.78606 28.9013 9.39929 28.891 9.4374C27.4413 16.8758 24.8077 24.7264 18.8467 29.8227C14.5666 33.7065 7.37334 35.068 2.96557 30.6404C0.960156 28.6309 0.0523687 25.9771 0.000593754 23.2505C-0.0221619 20.7305 0.609526 18.2481 1.83343 16.0477C1.93007 15.8814 2.02672 15.7013 2.12682 15.5488C2.22692 15.3964 2.37879 15.147 2.50995 14.9564C2.64111 14.7659 2.77918 14.5718 2.91725 14.3882C3.33638 13.8387 3.79803 13.3232 4.29791 12.8465C4.59821 12.5763 4.9054 12.3199 5.22296 12.0808L5.54741 11.8487C5.82354 11.6512 6.10313 11.4607 6.39307 11.2875C6.53459 11.2008 6.68301 11.1142 6.83143 11.038C6.97985 10.9618 7.12482 10.8786 7.27669 10.8024C7.18005 10.9341 7.07995 11.0657 6.98675 11.1974C6.67611 11.6166 6.38271 12.0393 6.11694 12.4689C5.85116 12.8985 5.57503 13.3419 5.32651 13.7958C5.32781 13.8061 5.32781 13.8166 5.32651 13.827C5.24367 13.9759 5.16428 14.1249 5.09179 14.2739C5.01931 14.4229 4.93302 14.5822 4.85708 14.7381C4.78114 14.894 4.70521 15.0534 4.63272 15.2128C2.64457 19.0238 1.96804 24.9135 5.52325 27.8064C5.58193 27.8514 5.65096 27.8964 5.73035 27.9484C7.05234 28.8215 8.76091 28.967 10.3728 28.5443C12.0126 28.0549 13.4755 27.0981 14.5839 25.79L14.6529 25.7172C16.6756 23.4376 18.0079 20.2675 18.7949 17.5929C19.4076 15.3457 19.8484 13.0547 20.1134 10.7401L16.1958 10.7054L30.7929 0Z" fill="white"/>
<path d="M14.6522 25.7172C12.45 29.0397 9.21581 30.6403 5.89186 29.8261C2.17096 28.9288 0.462392 26.5175 0.0240313 23.2435C0.00127562 20.7236 0.632963 18.2411 1.85686 16.0408C1.95351 15.8745 2.05016 15.6943 2.15025 15.5419C2.25035 15.3894 2.40223 15.14 2.53339 14.9494C2.66455 14.7589 2.80262 14.5649 2.94069 14.3813C3.35982 13.8317 3.82147 13.3162 4.32135 12.8395C4.62164 12.5693 4.92884 12.3129 5.2464 12.0739L5.57085 11.8417C5.84698 11.6443 6.13347 11.4537 6.41996 11.277C6.56148 11.1904 6.7099 11.1038 6.85832 11.0276C7.00674 10.9514 7.15171 10.8682 7.30359 10.792C7.20694 10.9236 7.10684 11.0553 7.01365 11.1869L6.7168 11.5854C6.51316 11.8729 6.31641 12.1639 6.12657 12.4619C5.85044 12.895 5.58811 13.335 5.33614 13.7888C5.33744 13.7992 5.33744 13.8096 5.33614 13.82C5.25675 13.969 5.17391 14.1179 5.10143 14.2669C5.02894 14.4159 4.94265 14.5753 4.86671 14.7312C4.79078 14.8871 4.71484 15.0464 4.64235 15.2058C2.6542 19.0168 1.97767 24.9065 5.53288 27.7994C5.59156 27.8444 5.66059 27.8895 5.73998 27.9414C7.06197 28.8145 8.77054 28.96 10.3825 28.5373C12.0177 28.048 13.4767 27.0938 14.5831 25.79L14.6522 25.7172Z" fill="white"/>
<path d="M32.0763 19.2644C32.0763 17.5624 32.4601 16.0355 33.2277 14.6839C33.9953 13.3156 35.0382 12.2476 36.3565 11.48C37.6914 10.7124 39.1682 10.3286 40.7868 10.3286C42.6892 10.3286 44.3495 10.7875 45.7679 11.7053C47.1863 12.6231 48.2208 13.9246 48.8716 15.61H46.1433C45.6594 14.5587 44.9586 13.7494 44.0408 13.1821C43.1397 12.6147 42.0551 12.331 40.7868 12.331C39.5687 12.331 38.4757 12.6147 37.5079 13.1821C36.54 13.7494 35.7808 14.5587 35.2301 15.61C34.6795 16.6446 34.4041 17.8627 34.4041 19.2644C34.4041 20.6494 34.6795 21.8676 35.2301 22.9188C35.7808 23.9534 36.54 24.7544 37.5079 25.3218C38.4757 25.8891 39.5687 26.1728 40.7868 26.1728C42.0551 26.1728 43.1397 25.8975 44.0408 25.3468C44.9586 24.7794 45.6594 23.9701 46.1433 22.9188H48.8716C48.2208 24.5875 47.1863 25.8808 45.7679 26.7985C44.3495 27.6996 42.6892 28.1502 40.7868 28.1502C39.1682 28.1502 37.6914 27.7747 36.3565 27.0238C35.0382 26.2562 33.9953 25.1966 33.2277 23.845C32.4601 22.4933 32.0763 20.9665 32.0763 19.2644ZM53.5388 9.47758V28H51.2611V9.47758H53.5388ZM57.5961 12.0557C57.1622 12.0557 56.7951 11.9055 56.4947 11.6052C56.1944 11.3048 56.0442 10.9377 56.0442 10.5038C56.0442 10.07 56.1944 9.70285 56.4947 9.40248C56.7951 9.10212 57.1622 8.95194 57.5961 8.95194C58.0132 8.95194 58.3637 9.10212 58.6473 9.40248C58.9477 9.70285 59.0979 10.07 59.0979 10.5038C59.0979 10.9377 58.9477 11.3048 58.6473 11.6052C58.3637 11.9055 58.0132 12.0557 57.5961 12.0557ZM58.6974 14.2834V28H56.4196V14.2834H58.6974ZM74.0934 20.6161C74.0934 21.0499 74.0684 21.5088 74.0183 21.9927H63.055C63.1385 23.3444 63.5973 24.404 64.4317 25.1716C65.2827 25.9225 66.309 26.2979 67.5104 26.2979C68.4949 26.2979 69.3126 26.0727 69.9634 25.6221C70.6309 25.1549 71.0981 24.5375 71.3651 23.7699H73.818C73.4509 25.0881 72.7167 26.1644 71.6154 26.9988C70.514 27.8164 69.1457 28.2253 67.5104 28.2253C66.2088 28.2253 65.0408 27.9333 64.0062 27.3492C62.9883 26.7652 62.1873 25.9392 61.6033 24.8712C61.0192 23.7866 60.7272 22.5351 60.7272 21.1167C60.7272 19.6983 61.0109 18.4551 61.5782 17.3872C62.1456 16.3192 62.9382 15.5015 63.9561 14.9342C64.9907 14.3501 66.1755 14.0581 67.5104 14.0581C68.812 14.0581 69.9634 14.3418 70.9646 14.9092C71.9658 15.4765 72.7334 16.2608 73.2674 17.262C73.818 18.2465 74.0934 19.3645 74.0934 20.6161ZM71.7405 20.1405C71.7405 19.2728 71.5486 18.5302 71.1648 17.9128C70.781 17.2787 70.2554 16.8031 69.5879 16.4861C68.9371 16.1523 68.2113 15.9855 67.4103 15.9855C66.2589 15.9855 65.2744 16.3526 64.4567 17.0868C63.6557 17.821 63.1969 18.8389 63.08 20.1405H71.7405ZM82.7818 14.0331C84.4505 14.0331 85.8022 14.542 86.8367 15.5599C87.8713 16.5612 88.3886 18.0129 88.3886 19.9152V28H86.1359V20.2406C86.1359 18.8723 85.7938 17.8294 85.1096 17.1118C84.4255 16.3776 83.491 16.0105 82.3063 16.0105C81.1048 16.0105 80.1453 16.3859 79.4278 17.1368C78.7269 17.8878 78.3765 18.9807 78.3765 20.4158V28H76.0987V14.2834H78.3765V16.2358C78.827 15.5349 79.4361 14.9926 80.2037 14.6088C80.988 14.225 81.8474 14.0331 82.7818 14.0331ZM93.8865 16.1607V24.2455C93.8865 24.9129 94.0283 25.3885 94.312 25.6722C94.5957 25.9392 95.0879 26.0727 95.7888 26.0727H97.4658V28H95.4133C94.1451 28 93.194 27.708 92.5599 27.1239C91.9258 26.5399 91.6087 25.5804 91.6087 24.2455V16.1607H89.8316V14.2834H91.6087V10.8292H93.8865V14.2834H97.4658V16.1607H93.8865ZM114.067 10.4287V28H109.787V20.7662H103.129V28H98.8489V10.4287H103.129V17.3121H109.787V10.4287H114.067ZM129.948 14.0331V28H125.668V26.0977C125.234 26.7151 124.641 27.2157 123.89 27.5995C123.156 27.9666 122.339 28.1502 121.437 28.1502C120.369 28.1502 119.427 27.9166 118.609 27.4493C117.791 26.9654 117.157 26.2729 116.707 25.3718C116.256 24.4707 116.031 23.4111 116.031 22.193V14.0331H120.286V21.6173C120.286 22.5517 120.528 23.2776 121.012 23.7949C121.496 24.3122 122.147 24.5708 122.964 24.5708C123.799 24.5708 124.458 24.3122 124.942 23.7949C125.426 23.2776 125.668 22.5517 125.668 21.6173V14.0331H129.948ZM136.301 16.0105C136.702 15.3597 137.277 14.8341 138.028 14.4336C138.779 14.0331 139.638 13.8328 140.606 13.8328C141.758 13.8328 142.801 14.1249 143.735 14.7089C144.67 15.2929 145.404 16.1273 145.938 17.2119C146.488 18.2966 146.764 19.5564 146.764 20.9915C146.764 22.4266 146.488 23.6948 145.938 24.7961C145.404 25.8808 144.67 26.7235 143.735 27.3242C142.801 27.9082 141.758 28.2002 140.606 28.2002C139.622 28.2002 138.762 28.0083 138.028 27.6245C137.294 27.2241 136.718 26.6984 136.301 26.0476V28H132.021V9.47758H136.301V16.0105ZM142.409 20.9915C142.409 19.9236 142.108 19.0892 141.507 18.4885C140.923 17.8711 140.197 17.5624 139.33 17.5624C138.479 17.5624 137.753 17.8711 137.152 18.4885C136.568 19.1059 136.276 19.9486 136.276 21.0165C136.276 22.0845 136.568 22.9272 137.152 23.5446C137.753 24.162 138.479 24.4707 139.33 24.4707C140.181 24.4707 140.907 24.162 141.507 23.5446C142.108 22.9105 142.409 22.0595 142.409 20.9915Z" fill="white"/>
</g>
<defs>
<clipPath id="clip0_11747_17263">
<rect width="147" height="36" fill="white"/>
</clipPath>
</defs>
</svg>
